<svg width="508" height="627" fill="none" xmlns="http://www.w3.org/2000/svg">
  <g clip-path="url(#a)">
    <path d="M330.07 248.51c-.27.07-.55.19-.82.26-29.77 7.18-60.3 8.38-79.22-15.6-.65 2.46-1.37 4.89-2.17 7.3a7.32 7.32 0 0 1-1.7 3.17 6.96 6.96 0 0 1-2.51 1.33c-1.06.37-12.03 1.81-19.08 2.66-3.87 9.8-2.06 20.26-.2 30.52 2.2 11.77 6.35 23.48 14.84 32.23 21.13 21.75 58.67 18.75 80.66.56 14.05-11.63 28.38-38.17 32.67-55.17.97.16 1.94.26 2.9.35-9.43-2.24-23.87 1.85-25.37-7.6Z" fill="#FBA692"/>
    <path d="M388.1 309.76s41.8-8.58 53.83-72.14c12.02-63.56-21.81-90.1-29.25-133.05-7.45-42.94-29.2-41.23-29.2-41.23S354.85-19.68 256.94 4.37c-97.91 24.05-108.17 95.83-107.6 138.2.58 42.37-6.87 109.36-34.92 135.13-28.06 25.77-17.75 72.46 0 103.5 0 0-14.32 32.19 21.76 70.56 36.07 38.37 234.75 10.31 251.93-142Z" fill="#1A1A1A"/>
    <path d="M134.15 629.25h16.4a76 76 0 0 1 12.07 0h212.6l1-.64c-12.8-47.77 8.22-11.68 18.96-58.84 5.07-22.26-2.23-133.46 3.95-155.44 5.92-21.06 7.3-38.99 8.04-60.87 2.07-20.59 2-40.62 3.98-61.23.2-1.94 25.47-3.11 24.52-4.8-.82-1.45 9.7 7.86 8.29 7-11.35-5.67-31.46-34.06-43.9-37.15-9.56-2.37-45.4-.37-55.07-2.03-4.3 17-11.08 44.06-25.14 55.69-21.99 18.18-59.53 21.18-80.65-.57-8.5-8.75-10.18-17.55-12.39-29.32-1.92-10.54 8.09-15.77 12.39-25.8-1.13 2.63-40.47 5.32-45.08 10.15-7.7 8.05-8.2 11.34-13.29 21.27a2993.52 2993.52 0 0 0-36.14 73.65c-6.26 13.08-12.55 26.4-14.85 40.72-4.01 25.01 10.21 35.16 14.85 60.07 9.4 50.47-2.89 117.3-10.54 168.14Z" fill="#36C182"/>
    <path d="M488.36 441.61c11.3 45.53 21.47 92.76 19.65 139.89-.34 8.72.23 19.6-4.62 27.15a21.2 21.2 0 0 1-7.63 7.68c-9.62 5.01-12.71-4.95-16.03-12.01-4.07-8.66-9.77 8.51-14.12 0-7.32-14.32-9.95 2.68-17.76-11.17-17.06-30.25-33.56-117.44-44.71-150.22-5.1-15.01-9.41-29.99-14-45.11a108.2 108.2 0 0 1-3.8-49.76 358.33 358.33 0 0 1 20.54-72.2 5.6 5.6 0 0 1 2.52-3.36 5.4 5.4 0 0 1 3.73.24 67.54 67.54 0 0 1 32.24 22.76c9.43 12.13 11.92 27.87 16.03 42.44 5.17 18.27 9.84 36.68 14.01 55.2 3.61 16.05 9.48 30.6 13.47 46.56l.48 1.91Z" fill="#FBA692"/>
    <path d="M380.16 621.44a118.8 118.8 0 0 0-31-8.56 276.8 276.8 0 0 1-38.59-10.87 145.37 145.37 0 0 0-22.98-6.23 64.67 64.67 0 0 0-8.68-.81 77.7 77.7 0 0 0-31.99 7.1 52.53 52.53 0 0 1-11.02-1.68 181.6 181.6 0 0 0-12.68-4.06c-37.71-10.57-76.17-21.1-114.56-29.9-8.1-1.82-16.3-3.2-24.55-4.11 3.98-7.13 6.77 7.14 11.28 0 14.97-23.72 24.88-74.98 37.6-99.98-4.7-22.06-6.68-39.2-3.13-61.32 2.3-14.32 8.6-27.64 14.84-40.72 11.8-24.67 23.69-49.3 36.15-73.65 5.09-9.93 3.9-11.4 11.6-19.44a9.17 9.17 0 0 1 3.5-1.95c-1.82-.15-3.65 0-5.43.44-16.77 4.14-34.28 15.23-40.61 22.37a471.16 471.16 0 0 0-32.55 42.5 900.5 900.5 0 0 0-48.65 76.95C39.13 460.3 15.56 516.7 2.1 575.79c-.67 2.83-1 5.73-.96 8.63A53.18 53.18 0 0 0 5.4 618.5c1.66 3.19 4 5.96 6.87 8.12h368.27c1-.45 1.99-1.09 2.13-2.14.2-1.38-1.24-2.4-2.5-3.04Z" fill="#FCA08B"/>
    <path d="M52.25 565.6c19.69-7.12 41.47-2.87 61.94 1.46 13.5 2.84 27 5.7 40.23 9.55 15.3 4.47 30.19 10.27 45.56 14.5 14.08 3.89 28.53 6.2 42.27 11.29" stroke="#E88470" stroke-width="2.51" stroke-linecap="round" stroke-linejoin="round"/>
    <path d="M200.38 264.36c-23.47.9-55.89 14.88-102.8 78.38-46.93 63.5-70.12 149.91-70.12 149.91l86.63 39.78 31.52-74.22-13.94-51.02s74.47-130.5 68.72-142.83ZM398.96 257s-59.1 101.01 19.22 240.7c1.52 15.37 80.22-16.07 80.22-16.07S459.67 311.1 449.7 293.4c-7.4-18.52-24.4-26.45-30.05-30.33-5.65-3.89-20.69-6.07-20.69-6.07Z" fill="#36C182"/>
    <path d="M208.35 108.97s3.31 47.02 7.23 69.62c3.92 22.6 20.3 46.94 31.76 53.27 11.45 6.33-23.63 33.84-22.73 49.51.9 15.68 24.27 53.47 63.77 44.65s46.82-21.59 56.85-70.71c0 0-30.8-26.08-28.69-41.45a95.95 95.95 0 0 0 21.1-38.28s18.7 1.28 21.7-23.51c2.74-22.53-7.53-32.25-11.45-31.95-3.91.3-5.42 8.74-8.44 17.79-3.01 9.04-6.33-9.96-6.93-24.42l-.6-14.46s-22.38 5.27-20.84-21.64c.67-11.74-38.84 34.36-89.48 26.15a13.03 13.03 0 0 0-13.25 5.43Z" fill="#FBA692"/>
    <path d="M282.07 114.64a1.83 1.83 0 0 0 1.7-1.16 11.81 11.81 0 0 1 10.1-6.17c9.5-1.14 13.24 3.94 13.4 4.16a1.81 1.81 0 0 0 2.98-2.06c-.2-.3-5.01-7.1-16.8-5.69a15.24 15.24 0 0 0-13.06 8.47 1.81 1.81 0 0 0 1.05 2.32c.2.08.42.13.63.13Z" fill="#1A1A1A"/>
    <path d="M264.35 174.34c-.08 0-.15 0-.22-.02-.34-.05-7.97-1.47-10.43-6.76-2.34-5.03 5.92-23.89 7.6-27.61a1.24 1.24 0 1 1 2.27 1.02c-3.71 8.23-9.06 22.44-7.61 25.55 1.93 4.13 8.54 5.35 8.6 5.36.3.06.57.23.76.47.18.25.27.56.24.87a1.25 1.25 0 0 1-1.22 1.13Z" fill="#F4876D"/>
    <path d="M271.62 204.33c-11.39 2.16-22.3-12.99-22.64-13.23a1.27 1.27 0 0 1-.18-2 1.97 1.97 0 0 1 2.4-.15 22.94 22.94 0 0 0 19.25 2.08c11.66-3.55 15.26-7.05 15.3-7.08a1.96 1.96 0 0 1 2.4-.2 1.25 1.25 0 0 1 .6 1.32c-.04.26-.16.5-.35.68-.16.16-4.07 14.73-16.78 18.6-1.13.32 1.07-.22 0-.02Z" fill="#fff"/>
    <path d="M221.68 120.12a1.74 1.74 0 0 0 1.62-1.12 11.32 11.32 0 0 1 9.72-5.93c9.14-1.1 12.73 3.78 12.88 3.98a1.75 1.75 0 0 0 2.42.43 1.75 1.75 0 0 0 .44-2.42c-.2-.28-4.82-6.82-16.15-5.47a14.64 14.64 0 0 0-12.56 8.14 1.74 1.74 0 0 0 1.63 2.36v.03Z" fill="#1A1A1A"/>
    <path d="M311.35 215.96s-13.19 16.88-41.53 21.03M351.36 135s-7.91 5.01-8.14 25.13" stroke="#F4876D" stroke-width="2.41" stroke-linecap="round"/>
    <path d="M351.07 151.26s-.45-6.55-4.06-8.81Z" fill="#fff"/>
    <path d="M351.07 151.26s-.45-6.55-4.06-8.81" stroke="#F4876D" stroke-width="2.41" stroke-linecap="round"/>
    <path d="M241.4 135.77c.6 4.94-1 9.19-3.6 9.5-2.6.33-5.2-3.41-5.8-8.34-.61-4.93 1-9.2 3.6-9.51 2.6-.32 5.2 3.42 5.8 8.35Zm61.02.52c.61 4.94-1 9.18-3.6 9.5-2.6.32-5.2-3.42-5.8-8.35-.6-4.93 1-9.19 3.6-9.5 2.6-.32 5.2 3.4 5.8 8.35Z" fill="#1A1A1A"/>
    <path d="M161.1 332.56s-30.99 59.62-26.14 85.42c4.84 25.8 13.56 63.34 13.56 63.34" stroke="#0C9D5B" stroke-width="2.41" stroke-linecap="round"/>
    <path d="M500.25 626.55H131.09s-5-5.88 24.88-12.39c29.9-6.51 62.1-17.95 71.73-18.75 9.63-.8 21.43 3.16 38.8 5.62 17.37 2.46 147.1-36.08 159.8-37.36 12.68-1.29 78.51-9.3 78.51-9.3s8.8 47.78 2.73 59.79c-6.09 12-7.29 12.39-7.29 12.39Z" fill="#FBA692"/>
    <path d="M443.24 565.6c-19.69-7.12-44.06 6.69-64.54 11.01a689.77 689.77 0 0 0-45.02 11.43c-15.3 4.47-50.27 9.4-65.64 13.64-14.08 3.88-29.02-22.03-134.36 19.93" stroke="#E88470" stroke-width="2.51" stroke-linecap="round" stroke-linejoin="round"/>
  </g>
  <defs>
    <clipPath id="a">
      <path fill="#fff" d="M0 0h507.57v627H0z"/>
    </clipPath>
  </defs>
</svg>
