<svg width="498" height="627" fill="none" xmlns="http://www.w3.org/2000/svg">
  <g clip-path="url(#a)">
    <path d="M323.23 254.31c-.27.08-.54.19-.8.25-29.16 7.04-59.06 8.21-77.59-15.26-.63 2.4-1.34 4.78-2.11 7.14a7.17 7.17 0 0 1-1.67 3.1 6.83 6.83 0 0 1-2.46 1.3c-1.03.37-11.78 1.78-18.69 2.6-3.78 9.6-2.02 19.85-.19 29.9 2.16 11.52 6.22 22.99 14.54 31.56 20.69 21.3 57.45 18.36 78.98.55 13.76-11.39 27.8-37.38 32-54.03a40 40 0 0 0 2.84.35c-9.24-2.2-23.38 1.8-24.85-7.45Z" fill="#FBA692"/>
    <path d="M131.37 627.16h16.07a75.1 75.1 0 0 1 11.81 0h208.2c.32-.21.64-.4.97-.63-12.53-46.78 8.06-11.43 18.57-57.62 4.97-21.79-2.18-130.7 3.87-152.2 5.8-20.63 7.14-38.2 7.87-59.62 2.03-20.16 1.95-39.78 3.9-59.96.19-1.9 24.94-3.05 24-4.71-.79-1.41 9.51 7.7 8.13 6.87-11.12-5.56-30.81-33.36-43-36.39-9.35-2.32-44.46-.36-53.92-1.99-4.2 16.65-10.85 43.15-24.62 54.54-21.53 17.8-58.3 20.75-78.98-.56-8.31-8.56-12.38-20.03-14.54-31.56-1.87-10.32-3.74-20.87.48-30.7-1.1 2.58-21.3 1.45-25.83 6.18-7.53 7.88-12.28 23.14-17.27 32.87a2928.5 2928.5 0 0 0-35.4 72.12c-6.12 12.8-12.28 25.85-14.53 39.87-3.93 24.5 10 34.44 14.54 58.83 9.21 49.43-2.83 114.89-10.32 164.66Z" fill="#768EE7"/>
    <path d="M478.24 443.41c11.06 44.59 21.02 90.84 19.24 137-.33 8.53.23 19.19-4.52 26.58-1.8 3.1-4.37 5.7-7.47 7.52-9.42 4.9-12.46-4.84-15.7-11.76-3.99-8.48-9.57 8.34-13.83 0-7.17-14.02-9.75 2.62-17.4-10.94-16.7-29.62-32.86-115-43.78-147.1-5-14.7-9.21-29.37-13.7-44.18a105.94 105.94 0 0 1-3.73-48.73 350.86 350.86 0 0 1 20.12-70.7 5.49 5.49 0 0 1 2.47-3.3c1.2-.35 2.5-.27 3.65.24a66.14 66.14 0 0 1 31.57 22.29c9.24 11.88 11.67 27.29 15.7 41.56a1035.7 1035.7 0 0 1 13.72 54.07c3.53 15.7 9.28 29.96 13.2 45.58l.46 1.87Z" fill="#FBA692"/>
    <path d="M372.28 619.52c-9.7-4.16-19.9-6.98-30.36-8.39a270.24 270.24 0 0 1-37.78-10.65 142.35 142.35 0 0 0-22.51-6.1 63.17 63.17 0 0 0-8.5-.79 76.07 76.07 0 0 0-31.32 6.96 51.49 51.49 0 0 1-10.8-1.64 178.01 178.01 0 0 0-12.41-3.99c-36.94-10.34-74.6-20.67-112.2-29.27a220.11 220.11 0 0 0-24.04-4.03c3.9-6.98 6.64 7 11.05 0 14.66-23.23 24.37-73.42 36.82-97.9-4.6-21.61-6.54-38.4-3.06-60.06 2.25-14.02 8.41-27.06 14.54-39.87a2956.73 2956.73 0 0 1 35.39-72.13c4.98-9.72 9.75-24.99 17.27-32.87a8.79 8.79 0 0 1 3.43-1.9 16.48 16.48 0 0 0-5.33.42c-16.42 4.06-39.48 28.76-45.68 35.74a461.2 461.2 0 0 0-31.88 41.62 881.83 881.83 0 0 0-47.64 75.35C38.3 461.71 15.22 516.94 2.03 574.82c-.66 2.76-.97 5.6-.94 8.44a52.08 52.08 0 0 0 4.18 33.38 23.48 23.48 0 0 0 6.72 7.94h360.65c.97-.44 1.95-1.06 2.1-2.09.18-1.35-1.22-2.36-2.46-2.97Z" fill="#FCA08B"/>
    <path d="M51.17 564.84c19.28-6.98 40.6-2.82 60.66 1.42 13.2 2.79 26.43 5.58 39.39 9.36 14.98 4.37 29.56 10.05 44.62 14.2 13.78 3.8 27.93 6.07 41.39 11.05" stroke="#E88470" stroke-width="2.51" stroke-linecap="round" stroke-linejoin="round"/>
    <path d="M196.23 256.84c-22.99.88-54.73 14.57-100.68 76.76-45.95 62.18-61.47 143.68-61.47 143.68l77.65 42.06 27.61-66.35-10.4-56.3s72.93-127.77 67.3-139.85Zm194.47 5.79s-57.88 98.92 18.8 235.72c1.5 15.04 78.57-15.75 78.57-15.75s-37.93-166.98-47.69-184.33c-7.25-18.14-23.9-25.9-29.43-29.7-5.53-3.8-20.25-5.94-20.25-5.94Z" fill="#768EE7"/>
    <path d="M196.3 138.71s-5.98-8.74-11.6 4.38c-5.61 13.11 5.6 31.33 10.77 35.7 5.17 4.37 19.1 10.2 19 3.64-.1-6.56-5.65-34.97-10.19-45.16-4.53-10.18-7.99 1.44-7.99 1.44Zm165.42 2.19s5.7-8.74 11.72 4.38c6.04 13.11-4.6 31.32-9.63 35.7-5.03 4.37-18.79 10.2-18.89 3.64-.1-6.56 4.55-34.97 8.77-45.16 4.23-10.18 8.03 1.44 8.03 1.44Z" fill="#FBA692"/>
    <path d="M206.25 169.32s6.44 38.61 11.09 56.1c4.64 17.49 44.62 57.56 59.2 58.29 14.59.73 52.84-22.59 61.93-46.63 9.09-24.05 11.4-62.66 11.37-64.85-.03-2.18 4.97-54.64-9.18-73.59-14.14-18.94-73.11-16.03-102-.73-28.9 15.3-44.58 38.62-32.4 71.4Z" fill="#FBA692"/>
    <path d="M256.32 202.47c.07 4.63-1.99 8.38-4.6 8.38-2.62 0-4.8-3.75-4.88-8.38-.08-4.63 2-8.38 4.61-8.38 2.62 0 4.8 3.75 4.87 8.38Zm56.11 0c.07 4.63-2 8.38-4.6 8.38-2.62 0-4.8-3.75-4.88-8.38-.08-4.63 1.99-8.38 4.6-8.38 2.62 0 4.82 3.75 4.88 8.38Z" fill="#263238"/>
    <path d="m260.26 175.15-27.47 13.84m69.74-13.11 27.21 16.02" stroke="#263238" stroke-width="2.41" stroke-linecap="round"/>
    <path d="M290.91 225.72a9.34 9.34 0 0 1-9.82 9 9.7 9.7 0 0 1-10.11-9m3 31.78a16.32 16.32 0 0 1 13.21 0" stroke="#F4876D" stroke-width="1.21" stroke-linecap="round"/>
    <path d="m236.77 210.45 11.13 2.11m77.14-2.11-12.1 3.7" stroke="#F8886E" stroke-width="1.21" stroke-linecap="round"/>
    <path d="M244.82 27.97s-37.61 17.48-49.45 52.46c-11.83 34.97 4.04 71.4 6.38 80.88a330.29 330.29 0 0 0 3.87 14.56 154.32 154.32 0 0 1 18.66-18.21c7.92-5.83 23.9-8.74 33.34-10.93 9.45-2.19 42.1-10.2 50.7-18.94 8.61-8.74 11.47-12.39 11.47-12.39s7.15 37.16 16.79 48.08a54.23 54.23 0 0 1 12.02 22.59s6.33-14.57 11.22-27.7c4.9-13.11 8.31-73.58-5.2-99.08-13.5-25.5-70.75-50.27-109.8-31.32Z" fill="#1A1A1A"/>
    <path d="M319.79 115.41s-29.38 31.33-63.4 45.9c-34 14.57-69.84 53.19-66.6 72.86 3.26 19.67 27.4 26.96 24.48 26.96-2.91 0-38.72-6.55-38.45-35.7.27-29.14 19.3-56.83 35.21-64.11 15.91-7.29 94.34-36.45 108.76-45.91Zm6.9 21.85s10.02 34.97 16.04 46.63c6.01 11.66 16.65 39.35 8.94 59.02-7.7 19.67-13.48 22.59-13.48 22.59s25.94-18.22 25.47-48.08c-.47-29.87-32.28-59.76-36.97-80.16Z" fill="#1A1A1A"/>
    <path d="M276.85 73.6a49.47 49.47 0 0 0 25.77-5.94c7.58-4.2 13.34-10.33 16.43-17.47a30.33 30.33 0 0 0 .8-22.31c-2.59-7.35-7.9-13.86-15.16-18.6a49.58 49.58 0 0 0-25.3-7.75 49.57 49.57 0 0 0-25.77 5.95c-7.58 4.2-13.33 10.32-16.43 17.47a30.33 30.33 0 0 0-.79 22.3c2.58 7.35 7.89 13.87 15.15 18.6a49.57 49.57 0 0 0 25.3 7.75Z" fill="#fff"/>
    <path d="M277.03 68.44c9.17.34 18.18-1.57 25.75-5.46 7.58-3.88 13.31-9.55 16.39-16.18a26.26 26.26 0 0 0 .73-20.7c-2.6-6.83-7.92-12.89-15.2-17.3-7.27-4.41-16.13-6.95-25.3-7.26-9.16-.34-18.18 1.56-25.75 5.45s-13.31 9.55-16.38 16.18a26.25 26.25 0 0 0-.74 20.7c2.6 6.83 7.92 12.9 15.2 17.3 7.27 4.41 16.14 6.96 25.3 7.27Z" fill="#1A1A1A"/>
    <path d="M277.7 49.13a37.91 37.91 0 0 0 18.43-3.92c5.42-2.78 9.5-6.8 11.7-11.5a18.5 18.5 0 0 0 .46-14.68c-1.89-4.83-5.72-9.11-10.94-12.22a37.93 37.93 0 0 0-18.15-5.08 37.92 37.92 0 0 0-18.43 3.92c-5.4 2.77-9.5 6.8-11.68 11.5a18.43 18.43 0 0 0-.47 14.68c1.88 4.83 5.71 9.11 10.94 12.22a37.94 37.94 0 0 0 18.14 5.08Z" fill="#1A1A1A"/>
    <path d="M489.88 624.51h-361.5s-4.91-5.75 24.36-12.12c29.27-6.38 60.81-17.58 70.25-18.36 9.43-.79 20.98 3.1 37.99 5.5 17 2.4 144.05-35.33 156.48-36.6 12.43-1.25 76.89-9.09 76.89-9.09s8.62 46.78 2.67 58.54c-5.96 11.76-7.14 12.13-7.14 12.13Z" fill="#FBA692"/>
    <path d="M434.05 564.84c-19.28-6.98-43.14 6.54-63.2 10.78a674.78 674.78 0 0 0-44.08 11.19c-14.99 4.37-49.24 9.2-64.28 13.35-13.79 3.8-28.43-21.57-131.58 19.52" stroke="#E88470" stroke-width="2.51" stroke-linecap="round" stroke-linejoin="round"/>
    <path d="M339.5 236.27s-15.28 24.09-24.93 31.31c-7.48 7.15-15.46 13.46-35.05 18.05-8.54 1.8-24.2-13.32-39.41-27.29a93.05 93.05 0 0 1-21.44-28.58" stroke="#E88470" stroke-width="2.17" stroke-linecap="round" stroke-linejoin="round"/>
  </g>
  <defs>
    <clipPath id="a">
      <path fill="#fff" d="M0 0h497.05v627H0z"/>
    </clipPath>
  </defs>
</svg>
